<?xml version="1.0" encoding="utf-8"?>
<svg xmlns="http://www.w3.org/2000/svg">

  <style>
    :root > svg {
      display: none;
    }

    :root > svg:target {
      display: block;
    }
  </style>

<svg id="desktop" viewBox="0 0 70 66">
    <use href="#mark"/>
  </svg>
  <svg id="tablet" viewBox="0 0 70 66" style="--tablet-hidden: transparent;">
    <use href="#mark"/>
  </svg>
  <svg id="mobile" viewBox="19 2 34 38" style="--mobile-hidden: transparent;
  overflow: hidden;">
    <use href="#mark"/>
  </svg>
  <svg id="logotype" viewBox="84.24 22.11 117.77 21.37">
    <use href="#logo"/>
  </svg>

  <svg id="full" viewBox="0 0 203 66">
    <g id="mark">
      <path id="sun_small" d="M52.96 25.2c0 9.157-7.459 16.58-16.66 16.58S19.64 34.357 19.64 25.2c0-9.157 7.459-16.58 16.66-16.58s16.66 7.423 16.66 16.58z" fill="#FDC305"/>
      <path id="sun_big" d="M61.84 33.595C61.84 47.625 50.378 59 36.24 59c-14.139 0-25.6-11.374-25.6-25.405 0-14.03 11.462-25.405 25.6-25.405 14.139 0 25.6 11.374 25.6 25.405z" fill="var(--mobile-hidden, #FDC305)"/>
      <path id="cloak" d="M50.892 42.762c-.8-1.17-3.46-1.666-5.27-1.865-6.622 1.865-10.82 2.252-16.97-.05a6.095 6.095 0 0 0-4.38 1.29 18.248 18.248 0 0 0-2.65 2.341l-.531-3.829s-.15-2.242-2.27-2.103a38.924 38.924 0 0 0-5.63 1.101s.25-4.106-5-4.632A46.196 46.196 0 0 0 0 34.777s9.55-6.507 15-9.324c6.5-3.36 38-5.679 41.463-3.958a43.672 43.672 0 0 1 13.7 10.653c-11.18-2.49-11.46 7.222-11.46 7.222-8.1-3.73-7.81 3.392-7.81 3.392z" fill="var(--mobile-hidden, #F06351)"/>
      <path id="body" d="M42.051 58.306c.325-.344.604-.727.83-1.141.7-1.25 1.85-5.763 2.4-9.989.17-1.294.288-3.485.31-4.414.12-4.9-.1-11.308-.1-13.004 0-1.963.175-2.147.995-3.01.121-.126.256-.268.406-.432 1.35-1.518 6.46-5 7.18-4.96.72.04 2.65 3.442 2.65 3.442s.04.903.19 2.192c.15 1.29 1.06 1.002 1.5.576v-.01a6.17 6.17 0 0 0 .87-1.825 27.714 27.714 0 0 0-1.83-2.976c-.19-.29-1.526-1.948-2.244-2.838-.317-.394-.604-.906-1.176-.892-2.815.15-5.576.823-8.14 1.984v-1.815a83.028 83.028 0 0 0-20.241 1.329l-.05 2.252s-6.17-.328-7.28-.427c-1.11-.099-1.25.238-1.25.238-.832.847-1.448 1.846-2.07 2.867a22.56 22.56 0 0 0-1.82 3.71c-.63 1.676-.51 3.104.29 3.104s2.05.05 2-.426a7.041 7.041 0 0 0-.48-1.438 5.065 5.065 0 0 1 1.73-3.82c1.182-1.039 2.564-1.02 4-.624 1.4.387 5.21 1.815 5.21 1.815l2.71 13.064 1 5.783 1.18 5.307c.52 2.43 1.11 4.721 1.69 6.794.547 1.955 3.39 7.378 3.989 6.778 1-1-.382-2.674-.639-6.51-.16-2.39-.28-4.533-.28-4.533 0-4.036 7.15-6.5 6.86-4.037-.104 1.402-.48 3.31-.81 4.983-.175.894-.339 1.72-.44 2.367-.045.25-.045.505 0 .754.309.476.692-.04.86-.218z" fill="#fff"/>

      <g id="print">
        <path d="M36.262 37.99c2.07 0 3.75-1.665 3.75-3.719s-1.68-3.72-3.75-3.72c-2.072 0-3.75 1.666-3.75 3.72 0 2.054 1.678 3.72 3.75 3.72z" fill="var(--mobile-hidden, #FDC305)"/>
        <path d="m41.232 31.246-3.13 1.3 1.15-5.585-7.5 9.68 3.13-1.298-1.15 5.594 7.5-9.691zm-7.39 3.799 4.16-5.366-.81 3.967 2-.813-4.19 5.376.81-3.968-1.97.804zm-1.4-1.458c.618 0 1.12-.498 1.12-1.111 0-.614-.502-1.111-1.12-1.111-.619 0-1.12.497-1.12 1.11 0 .614.501 1.112 1.12 1.112zm6.52 4.027c.436 0 .79-.35.79-.784a.787.787 0 0 0-.79-.783c-.436 0-.79.35-.79.783 0 .433.354.784.79.784zm.96-2.152c.193 0 .35-.156.35-.348a.349.349 0 0 0-.35-.347.349.349 0 0 0-.35.347c0 .192.157.348.35.348z" fill="var(--mobile-hidden, #111)"/>
      </g>

      <path id="hat" d="M45.932 19.194a89.015 89.015 0 0 0-1.4-16.397s-.15-1.29-.87-.238a14.057 14.057 0 0 0-1.2 3.968 71.461 71.461 0 0 0-12.82.337c-.82-2.728-2.22-3.968-2.89-3.64-.67.327-.75 3.253-.75 3.253l-.33 14.046a143.942 143.942 0 0 1 20.26-1.33zM36.002 23.509c-.115.225-.271.427-.46.595-.285.227-.635.36-1 .377a2.193 2.193 0 0 1-1.54-.437 1.995 1.995 0 0 1-.53-.446 1.001 1.001 0 0 0-.36-.248s.75 4.077 2.57 4.731c1.82.655 2.16-.753 2.21-1.13a5.55 5.55 0 0 0-.82-3.214c0-.298-.02-.1-.07-.228z" fill="#F06351"/>
      <path id="collar" d="M45.882 20.99a57.22 57.22 0 0 0-5.09 5.167 31.789 31.789 0 0 1-5.31 4.86c-.22-.525-1.63-1.507-1.63-1.507s-3.14-2.133-5.2-3.81a31.78 31.78 0 0 1-3.14-2.975l-2-.109a22.62 22.62 0 0 0 12 8.769c.86-.14 3.28-1.855 5.09-3.254a57.431 57.431 0 0 0 6-5.862 6.314 6.314 0 0 0 1.14-1.984c-1.14.377-1.86.704-1.86.704z" fill="#F06351"/>
      <path id="panties" d="M45.352 46.74c.13-1.062.2-2.47.24-4.028l-8.15 2.153a64.434 64.434 0 0 1-7.8 1.756l1.11 4.96c0 .108 0 .218.07.327a32.398 32.398 0 0 0 4.76 2.53 42.484 42.484 0 0 0 6.88-4.098v.06a15.115 15.115 0 0 0 2.89-3.66z" fill="var(--mobile-hidden, #E55645)"/>
      <path id="lineaments" d="M32.002 16.09c-.05-.1 1 .674 1.41.912.41.238.61.416.61.585 0 .169-.26.337-.62.337s-.92-.119-1-.258c-.08-.139.6 0 .94 0h.29a8.05 8.05 0 0 1-1.63-1.577zm7.5.108s-1 1.27-1.09 1.33c-.09.059-.17.337.19.287a8.146 8.146 0 0 0 1.22-.278c.11-.06.07-.198-.12-.178-.19.02-.68.05-1 .109l.85-1.26s.03-.119-.05-.01zm-3.14 6.06a2.293 2.293 0 0 0 1.09-.991c.28-.655 0-.903-.44-.992-.606-.11-1.23.01-1.75.337-.39.367-.34.724 0 .992.337.263.707.483 1.1.655zm-2.06 2.382a3.518 3.518 0 0 1-2.35-1.419.148.148 0 0 1 0-.198.139.139 0 0 1 .1-.042.14.14 0 0 1 .1.042 3.21 3.21 0 0 0 2.11 1.3 2.122 2.122 0 0 0 1.64-.993l.14-.188.1.218s.38.754 1 .794c.62.04 1.06-.417 1.63-1.28a.144.144 0 0 1 .2-.04.143.143 0 0 1 .04.199c-.667.972-1.297 1.438-1.89 1.398a1.558 1.558 0 0 1-1.12-.724 2.255 2.255 0 0 1-1.7.933z"/>
      <path id="rays" d="m65.223 3.472-8.46 9.364-1.22-1.974L63.693 0l1.53 3.472zm-2.57 13.649 5.54-4.077-.78-3.71-5.4 4.771.64 3.016zm-2.73 31.85 6.13 3.155 3.01-2.321-6.69-2.728-2.45 1.895zM1.95 5.922 5.02 2.59l9.29 8.927-1.22 2.262L1.95 5.922zM7.38 16.15l-4.7-3.105-2.4 3.839 5.15 2.38 1.95-3.114zm6.53 35.977-4.55 3.323L12.16 59l4.02-3.988-2.27-2.886z" fill="var(--mobile-hidden, var(--tablet-hidden,#FDC305))"/>
    </g>

    <g id="logo">
      <path d="M85.664 41.661a8.173 8.173 0 0 1-1.4-5.148v-7.44a8.3 8.3 0 0 1 1.38-5.197c.927-1.184 2.51-1.773 4.75-1.766 2.24.007 3.757.526 4.55 1.557a6.627 6.627 0 0 1 1.33 4.454v1.746h-4.14v-1.895a9.827 9.827 0 0 0-.13-1.488 1.66 1.66 0 0 0-.47-.942 1.563 1.563 0 0 0-1.15-.367 1.47 1.47 0 0 0-1.5.744 5.388 5.388 0 0 0-.34 2.182v9.444a4.709 4.709 0 0 0 .39 2.182 1.49 1.49 0 0 0 1.45.724c.282.04.569-.01.82-.142.251-.132.455-.34.58-.592a5.748 5.748 0 0 0 .31-2.172V35.56h4.14v1.716a7.147 7.147 0 0 1-1.23 4.572c-.88 1.092-2.4 1.627-4.56 1.627-2.16 0-3.85-.595-4.78-1.815zm16.251-19.263h4.74l4 20.83h-3.94l-.71-4.602h-3.32l-.8 4.573h-4l4.03-20.801zm3.65 13.61-1.26-8.373-1.25 8.372h2.51zm8.16-10.476h-3.24v-3.134h10.72v3.134h-3.2V43.2h-4.29l.01-17.667z" fill="#111"/>
      <path d="M129.616 22.398h8.13v2.162h-5.2v6.874h4.22v2.054h-4.22v7.627h5.25V43.2h-8.18V22.398zm10.541 0h2l6 13.817V22.398h2.44v20.83h-1.87l-6-14.204v14.175h-2.48l-.09-20.801zm13.671 0h8.12v2.162h-5.2v6.874h4.26v2.054h-4.22v7.627h5.22V43.2h-8.18V22.398zm10.53 0h4.22a7.042 7.042 0 0 1 4.67 1.3c1 .862 1.49 2.27 1.49 4.225 0 2.645-.863 4.262-2.59 4.85l3 10.426h-2.84l-2.75-9.761h-2.27v9.76h-2.93v-20.8zm4 8.927a3.891 3.891 0 0 0 2.7-.754 3.536 3.536 0 0 0 .82-2.688 5.76 5.76 0 0 0-.29-1.984 1.883 1.883 0 0 0-1-1.071 4.794 4.794 0 0 0-2.05-.347h-1.29v6.884l1.11-.04zm10.321 10.336a9.113 9.113 0 0 1-1.27-5.307v-6.943a13.27 13.27 0 0 1 .5-3.968 4.443 4.443 0 0 1 1.74-2.39 5.947 5.947 0 0 1 3.36-.834 5.298 5.298 0 0 1 4.18 1.468 6.904 6.904 0 0 1 1.28 4.593v.774h-2.75v-.645a11.309 11.309 0 0 0-.18-2.301 1.98 1.98 0 0 0-.76-1.22 3.02 3.02 0 0 0-1.72-.407 2.534 2.534 0 0 0-1.81.555 2.53 2.53 0 0 0-.77 1.468 14.484 14.484 0 0 0-.17 2.47v7.727a7.39 7.39 0 0 0 .59 3.432 2.85 2.85 0 0 0 4.47-.09 7.994 7.994 0 0 0 .61-3.62v-1.467h-2.66v-2.054h5.3V43.2h-1.81l-.29-2.391a3.661 3.661 0 0 1-1.4 1.969 3.71 3.71 0 0 1-2.33.68 4.698 4.698 0 0 1-2.288-.375 4.656 4.656 0 0 1-1.822-1.42zm16.02-5.803-4.53-13.46h2.72l3.21 10.038 3.16-10.038h2.75l-4.5 13.46v7.34h-2.8l-.01-7.34z" fill="#444"/>
    </g>
  </svg>
</svg>
