<svg xmlns="http://www.w3.org/2000/svg" viewBox="0 0 32 32"><path d="M26.933 3h-.006c-4.938.033-16.945.916-21.793 8.38-2.708 4.17-2.792 10.663-.574 15.087-.747 1.973-1.037 3.286-1.044 3.323-.25 1.236 1.578 1.686 1.833.42.02-.102 2.409-10.373 10.854-16.378.982-.697-.007-2.402-1.04-1.664-4.79 3.405-7.739 8.008-9.473 11.656-1.242-4.578-.916-8.377.986-11.305 3.743-5.764 12.622-7.154 17.982-7.448-1.153 1.801-2.413 5.103-2.413 10.929 0 3.12-.83 5.522-2.465 7.14-2.62 2.591-6.88 2.834-9.993 2.584-1.22-.106-1.353 1.895-.143 1.994 3.48.285 8.291-.029 11.41-3.112 2.035-2.011 3.066-4.906 3.066-8.605 0-9.099 3.216-11.096 3.232-11.105.84-.45.582-1.896-.42-1.896z" fill="#fff"/></svg>
