<svg xmlns="http://www.w3.org/2000/svg" viewBox="0 0 32 32"><path d="M28 16.614c0-6.713-5.085-12.201-11.5-12.592V2.5h6.25c.967 0 .967-1.5 0-1.5h-14c-.967 0-.967 1.5 0 1.5H15v1.524c-6.398.41-11.464 5.89-11.464 12.59 0 3.815 1.641 7.234 4.236 9.547.452.403.513 1.11.09 1.544l-1.434 1.473c-.613.63.362 1.582.976.951l1.88-1.93a1.058 1.058 0 0 1 1.226-.191 11.878 11.878 0 0 0 5.258 1.221c1.841 0 3.587-.42 5.154-1.17a1.058 1.058 0 0 1 1.216.195l1.826 1.875c.614.63 1.59-.322.977-.95l-1.357-1.394c-.426-.438-.361-1.15.098-1.552C26.324 23.92 28 20.47 28 16.614zm-1.36 0c0 6.193-4.867 11.213-10.872 11.213S4.895 22.807 4.895 16.614c0-6.192 4.868-11.212 10.873-11.212 6.005 0 10.873 5.02 10.873 11.212zm-11.632.552c0 1.017 1.563.954 1.563-.043V8.94c0-1.008-1.563-1.008-1.563 0v8.225zm-4.677-5.751a1.086 1.086 0 1 0 .002-2.173 1.086 1.086 0 0 0-.002 2.173zm10.873 0a1.086 1.086 0 1 0 .002-2.173 1.086 1.086 0 0 0-.002 2.173zM11.418 23.35a1.086 1.086 0 1 1-2.172-.002 1.086 1.086 0 0 1 2.172.002zm4.35 3.256a1.086 1.086 0 1 0-1.088-1.086c0 .6.487 1.085 1.088 1.085zm-7.611-9.832c0 .6-.487 1.085-1.088 1.085a1.086 1.086 0 1 1 1.088-1.085zm16.31 1.085a1.086 1.086 0 1 0-1.088-1.085c0 .6.487 1.085 1.087 1.085zm-2.175 5.491c0 .6-.487 1.085-1.088 1.085a1.086 1.086 0 1 1 1.087-1.085z" fill="#fff"/></svg>
