<svg viewBox="0 0 32 32" xmlns="http://www.w3.org/2000/svg"><path d="M12.607-.01c-1.76 0-3.188 1.525-3.188 3.407 0 1.882 1.427 3.407 3.188 3.407 1.76 0 3.187-1.524 3.187-3.407S14.367-.01 12.607-.01zm0 5.476c-1.07 0-1.936-.926-1.936-2.07 0-1.142.866-2.069 1.935-2.069 1.07 0 1.936.927 1.936 2.07 0 1.143-.866 2.069-1.936 2.069zm9.17 13.007c-1.707 0-3.09 1.479-3.09 3.301 0 1.824 1.384 3.302 3.09 3.302 1.705 0 3.087-1.478 3.087-3.302 0-1.823-1.383-3.3-3.088-3.3zm0 5.013c-.885 0-1.602-.766-1.602-1.71 0-.947.717-1.713 1.601-1.713s1.602.766 1.602 1.712c0 .945-.718 1.711-1.602 1.711zM6.885 20.113c0-1.383 1.047-2.503 2.34-2.503 1.295 0 2.342 1.12 2.342 2.503s-1.047 2.503-2.341 2.503c-1.294 0-2.341-1.12-2.341-2.503zm19.04-8.652c.804.663 1.461 1.204.904 1.918l-.01.011c-.34.336-.639.633-1.706-.535-3.086-2.226-6.537-1.933-9.17.708-3.429 3.439-8.329 3.084-11.743-.053-.294-.42-.294-.865-.123-1.127.171-.262.833-.524 1.201-.132 2.61 2.79 6.83 2.683 9.562.105 3.139-2.96 7.52-3.829 11.084-.895zm3.72-3.304v18.659c.08 2.054-1.66 4.185-3.788 4.19-.858.003-20.581.003-20.581.003-2.256.145-3.923-2.124-3.923-4.193V8.279c.003-.188.052-.776.588-.776h.307s.675-.027.675.812v18.133c-.142 1.347.712 2.625 2.059 2.857.478.026 20.655.026 20.655.026 1.38.157 2.392-1.25 2.438-2.49.011-.287.004-14.931.002-18.54v-.06c.002-.182.045-.739.538-.739h.506c.15.005.524.077.524.655z" fill="#fff"/></svg>
